<svg width="24" height="25" viewBox="0 0 24 25" fill="none" xmlns="http://www.w3.org/2000/svg">
<g clip-path="url(#clip0_16_613)">
<path d="M12 0.453613C15.1826 0.453613 18.2348 1.7179 20.4853 3.96833C22.7357 6.21877 24 9.27102 24 12.4536C24 15.6362 22.7357 18.6885 20.4853 20.9389C18.2348 23.1893 15.1826 24.4536 12 24.4536C8.8174 24.4536 5.76516 23.1893 3.51472 20.9389C1.26428 18.6885 0 15.6362 0 12.4536C0 9.27102 1.26428 6.21877 3.51472 3.96833C5.76516 1.7179 8.8174 0.453613 12 0.453613ZM2.4 12.4536C2.4 14.9997 3.41143 17.4415 5.21178 19.2418C7.01212 21.0422 9.45392 22.0536 12 22.0536C14.5461 22.0536 16.9879 21.0422 18.7882 19.2418C20.5886 17.4415 21.6 14.9997 21.6 12.4536C21.6 9.90754 20.5886 7.46574 18.7882 5.66539C16.9879 3.86504 14.5461 2.85361 12 2.85361C9.45392 2.85361 7.01212 3.86504 5.21178 5.66539C3.41143 7.46574 2.4 9.90754 2.4 12.4536ZM15.048 13.2936L10.8 17.5536L9.108 15.8616L12.48 12.4536L9.12 9.05761L10.8 7.36561L15.888 12.4536L15.048 13.2936Z" fill="#FF4A73"/>
</g>
<defs>
<clipPath id="clip0_16_613">
<rect width="24" height="24" fill="white" transform="translate(0 0.453613)"/>
</clipPath>
</defs>
</svg>
