<svg width="24" height="24" viewBox="0 0 24 24" fill="none" xmlns="http://www.w3.org/2000/svg">
<path d="M17.525 15.2969C17.3272 15.2969 17.1339 15.2392 16.9694 15.131C16.805 15.0229 16.6768 14.8691 16.6011 14.6893C16.5254 14.5094 16.5056 14.3115 16.5442 14.1205C16.5828 13.9296 16.678 13.7542 16.8179 13.6165C16.9577 13.4788 17.1359 13.3851 17.3299 13.3471C17.5239 13.3091 17.725 13.3286 17.9077 13.4031C18.0904 13.4776 18.2466 13.6038 18.3565 13.7657C18.4664 13.9276 18.525 14.1179 18.525 14.3126C18.525 14.5736 18.4196 14.824 18.2321 15.0086C18.0446 15.1932 17.7902 15.2969 17.525 15.2969ZM6.47917 15.2969C6.28139 15.2969 6.08805 15.2392 5.9236 15.131C5.75915 15.0229 5.63097 14.8691 5.55529 14.6893C5.4796 14.5094 5.4598 14.3115 5.49838 14.1205C5.53697 13.9296 5.63221 13.7542 5.77206 13.6165C5.91191 13.4788 6.0901 13.3851 6.28408 13.3471C6.47806 13.3091 6.67912 13.3286 6.86185 13.4031C7.04458 13.4776 7.20076 13.6038 7.31064 13.7657C7.42052 13.9276 7.47917 14.1179 7.47917 14.3126C7.47917 14.5736 7.37381 14.824 7.18627 15.0086C6.99874 15.1932 6.74438 15.2969 6.47917 15.2969ZM17.8833 9.37019L19.8792 5.96589C19.9093 5.91921 19.9296 5.867 19.9387 5.81242C19.9478 5.75783 19.9456 5.702 19.9322 5.64827C19.9189 5.59454 19.8946 5.54403 19.8609 5.49977C19.8272 5.45552 19.7847 5.41843 19.7361 5.39075C19.6874 5.36307 19.6336 5.34536 19.5778 5.33869C19.522 5.33202 19.4654 5.33652 19.4114 5.35194C19.3575 5.36735 19.3072 5.39335 19.2637 5.42837C19.2202 5.46339 19.1844 5.50672 19.1583 5.55573L17.1375 9.00515C15.5217 8.29178 13.7709 7.92299 12 7.92299C10.2291 7.92299 8.4783 8.29178 6.8625 9.00515L4.84167 5.55983C4.81562 5.51082 4.77977 5.4675 4.73627 5.43247C4.69277 5.39745 4.64253 5.37145 4.58856 5.35604C4.53459 5.34062 4.47801 5.33612 4.42222 5.34279C4.36644 5.34946 4.3126 5.36717 4.26395 5.39485C4.21529 5.42253 4.17283 5.45962 4.13912 5.50387C4.1054 5.54813 4.08113 5.59864 4.06776 5.65237C4.05439 5.7061 4.0522 5.76194 4.06132 5.81652C4.07044 5.8711 4.09069 5.92331 4.12083 5.96999L6.11667 9.37429C2.6875 11.2077 0.341667 14.6284 0 18.6643H24C23.6583 14.6243 21.3125 11.2077 17.8792 9.37019" fill="white"/>
</svg>
