<svg width="24" height="24" viewBox="0 0 24 24" fill="none" xmlns="http://www.w3.org/2000/svg">
<path d="M17.9297 12.5972C17.9203 10.8769 18.6984 9.57849 20.2734 8.62224C19.3922 7.3613 18.0609 6.66755 16.3031 6.53161C14.6391 6.40036 12.8203 7.50192 12.1547 7.50192C11.4516 7.50192 9.83907 6.57849 8.57344 6.57849C5.95782 6.62067 3.17813 8.66442 3.17813 12.8222C3.17813 14.0504 3.40313 15.3191 3.85313 16.6285C4.45313 18.3488 6.61876 22.5675 8.87813 22.4972C10.0594 22.4691 10.8938 21.6582 12.4313 21.6582C13.9219 21.6582 14.6953 22.4972 16.0125 22.4972C18.2906 22.4644 20.25 18.63 20.8219 16.905C17.7656 15.466 17.9297 12.6863 17.9297 12.5972ZM15.2766 4.90036C16.5563 3.38161 16.4391 1.9988 16.4016 1.50192C15.2719 1.56755 13.9641 2.27067 13.2188 3.13786C12.3984 4.06599 11.9156 5.21442 12.0188 6.50817C13.2422 6.60192 14.3578 5.9738 15.2766 4.90036Z" fill="white"/>
</svg>
