<svg width="64" height="73" viewBox="0 0 64 73" fill="none" xmlns="http://www.w3.org/2000/svg">
<g clip-path="url(#clip0_13_271)">
<path d="M13.7143 0C6.14286 0 0 6.13086 0 13.6875V59.3125C0 66.8691 6.14286 73 13.7143 73H54.8571H59.4286C61.9571 73 64 70.9611 64 68.4375C64 65.9139 61.9571 63.875 59.4286 63.875V54.75C61.9571 54.75 64 52.7111 64 50.1875V4.5625C64 2.03887 61.9571 0 59.4286 0H54.8571H13.7143ZM13.7143 54.75H50.2857V63.875H13.7143C11.1857 63.875 9.14286 61.8361 9.14286 59.3125C9.14286 56.7889 11.1857 54.75 13.7143 54.75ZM18.2857 20.5312C18.2857 19.2766 19.3143 18.25 20.5714 18.25H48C49.2571 18.25 50.2857 19.2766 50.2857 20.5312C50.2857 21.7859 49.2571 22.8125 48 22.8125H20.5714C19.3143 22.8125 18.2857 21.7859 18.2857 20.5312ZM20.5714 27.375H48C49.2571 27.375 50.2857 28.4016 50.2857 29.6562C50.2857 30.9109 49.2571 31.9375 48 31.9375H20.5714C19.3143 31.9375 18.2857 30.9109 18.2857 29.6562C18.2857 28.4016 19.3143 27.375 20.5714 27.375Z" fill="#08C0DD"/>
</g>
<defs>
<clipPath id="clip0_13_271">
<rect width="64" height="73" fill="white"/>
</clipPath>
</defs>
</svg>
