<svg width="64" height="73" viewBox="0 0 64 73" fill="none" xmlns="http://www.w3.org/2000/svg">
<g clip-path="url(#clip0_13_274)">
<path d="M13.7143 4.5625V9.125H6.85714C3.07143 9.125 0 12.1904 0 15.9688V22.8125H64V15.9688C64 12.1904 60.9286 9.125 57.1429 9.125H50.2857V4.5625C50.2857 2.03887 48.2429 0 45.7143 0C43.1857 0 41.1429 2.03887 41.1429 4.5625V9.125H22.8571V4.5625C22.8571 2.03887 20.8143 0 18.2857 0C15.7571 0 13.7143 2.03887 13.7143 4.5625ZM64 27.375H0V66.1562C0 69.9346 3.07143 73 6.85714 73H57.1429C60.9286 73 64 69.9346 64 66.1562V27.375Z" fill="#08C0DD"/>
</g>
<defs>
<clipPath id="clip0_13_274">
<rect width="64" height="73" fill="white"/>
</clipPath>
</defs>
</svg>
