<svg width="64" height="57" viewBox="0 0 64 57" fill="none" xmlns="http://www.w3.org/2000/svg">
<path d="M33.7778 26.7188V1.84805C33.7778 0.846094 34.5555 0 35.5555 0C49.3 0 60.4444 11.1662 60.4444 24.9375C60.4444 25.9395 59.6 26.7188 58.6 26.7188H33.7778ZM3.55554 30.2812C3.55554 16.7771 13.5667 5.5998 26.5555 3.81855C27.5778 3.67383 28.4444 4.49766 28.4444 5.53301V32.0625L45.8333 49.4854C46.5778 50.2313 46.5222 51.4559 45.6667 52.057C41.3111 55.1742 35.9778 57 30.2222 57C15.5 57 3.55554 45.0434 3.55554 30.2812ZM62.0444 32.0625C63.0778 32.0625 63.8889 32.9309 63.7555 33.9551C62.9 40.1783 59.9111 45.7113 55.5444 49.7971C54.8778 50.4205 53.8333 50.376 53.1889 49.7191L35.5555 32.0625H62.0444Z" fill="#08C0DD"/>
</svg>
