<svg width="64" height="51" viewBox="0 0 64 51" fill="none" xmlns="http://www.w3.org/2000/svg">
<g clip-path="url(#clip0_13_267)">
<path d="M39.2799 0.119552C37.5799 -0.368534 35.8099 0.617599 35.3199 2.31096L22.5199 46.936C22.0299 48.6293 23.0199 50.3924 24.7199 50.8805C26.4199 51.3686 28.1899 50.3824 28.6799 48.6891L41.4799 4.06408C41.9699 2.37072 40.9799 0.607638 39.2799 0.119552ZM47.3399 12.0826C46.0899 13.3278 46.0899 15.3498 47.3399 16.5949L56.2699 25.5L47.3299 34.4051C46.0799 35.6502 46.0799 37.6723 47.3299 38.9174C48.5799 40.1625 50.6099 40.1625 51.8599 38.9174L63.0599 27.7612C64.3099 26.516 64.3099 24.494 63.0599 23.2488L51.8599 12.0926C50.6099 10.8475 48.5799 10.8475 47.3299 12.0926L47.3399 12.0826ZM16.6699 12.0826C15.4199 10.8375 13.3899 10.8375 12.1399 12.0826L0.939941 23.2389C-0.310059 24.484 -0.310059 26.5061 0.939941 27.7512L12.1399 38.9074C13.3899 40.1526 15.4199 40.1526 16.6699 38.9074C17.9199 37.6623 17.9199 35.6403 16.6699 34.3951L7.72994 25.5L16.6699 16.5949C17.9199 15.3498 17.9199 13.3278 16.6699 12.0826Z" fill="#08C0DD"/>
</g>
<defs>
<clipPath id="clip0_13_267">
<rect width="64" height="51" fill="white"/>
</clipPath>
</defs>
</svg>
