<svg width="64" height="64" viewBox="0 0 64 64" fill="none" xmlns="http://www.w3.org/2000/svg">
<g clip-path="url(#clip0_13_266)">
<path d="M32 64C40.4869 64 48.6263 60.6286 54.6274 54.6274C60.6286 48.6263 64 40.4869 64 32C64 23.5131 60.6286 15.3737 54.6274 9.37258C48.6263 3.37142 40.4869 0 32 0C23.5131 0 15.3737 3.37142 9.37258 9.37258C3.37142 15.3737 0 23.5131 0 32C0 40.4869 3.37142 48.6263 9.37258 54.6274C15.3737 60.6286 23.5131 64 32 64ZM38.3375 40.6375L20.3 47.575C17.875 48.5125 15.4875 46.125 16.425 43.7L23.3625 25.6625C23.775 24.6 24.6 23.775 25.6625 23.3625L43.7 16.425C46.125 15.4875 48.5125 17.875 47.575 20.3L40.6375 38.3375C40.2375 39.4 39.4 40.225 38.3375 40.6375ZM36 32C36 30.9391 35.5786 29.9217 34.8284 29.1716C34.0783 28.4214 33.0609 28 32 28C30.9391 28 29.9217 28.4214 29.1716 29.1716C28.4214 29.9217 28 30.9391 28 32C28 33.0609 28.4214 34.0783 29.1716 34.8284C29.9217 35.5786 30.9391 36 32 36C33.0609 36 34.0783 35.5786 34.8284 34.8284C35.5786 34.0783 36 33.0609 36 32Z" fill="#08C0DD"/>
</g>
<defs>
<clipPath id="clip0_13_266">
<rect width="64" height="64" fill="white"/>
</clipPath>
</defs>
</svg>
