<svg width="64" height="64" viewBox="0 0 64 64" fill="none" xmlns="http://www.w3.org/2000/svg">
<g clip-path="url(#clip0_13_273)">
<path d="M29.3125 0.712402C31.05 0.0874023 32.95 0.0874023 34.7 0.712402L58.7 9.2874C61.875 10.4249 64 13.4374 64 16.8249V47.1874C64 50.5624 61.875 53.5874 58.6875 54.7249L34.6875 63.2999C32.95 63.9249 31.05 63.9249 29.3 63.2999L5.3 54.7249C2.125 53.5749 0 50.5624 0 47.1749V16.8249C0 13.4499 2.125 10.4249 5.3125 9.2874L29.3125 0.712402ZM32 8.2499L10.2875 15.9999L32 23.7499L53.7125 15.9999L32 8.2499ZM36 54.3249L56 47.1874V23.6874L36 30.8249V54.3249Z" fill="#08C0DD"/>
</g>
<defs>
<clipPath id="clip0_13_273">
<rect width="64" height="64" fill="white"/>
</clipPath>
</defs>
</svg>
