<svg width="64" height="64" viewBox="0 0 64 64" fill="none" xmlns="http://www.w3.org/2000/svg">
<g clip-path="url(#clip0_13_275)">
<path d="M58.95 2.71255C56.2125 -0.0249512 51.7875 -0.0249512 49.05 2.71255L45.2875 6.46255L57.525 18.7001L61.2875 14.9375C64.025 12.2 64.025 7.77505 61.2875 5.03755L58.95 2.71255ZM21.55 30.2125C20.7875 30.975 20.2 31.9125 19.8625 32.9501L16.1625 44.05C15.8 45.125 16.0875 46.3125 16.8875 47.125C17.6875 47.9375 18.875 48.2125 19.9625 47.85L31.0625 44.1501C32.0875 43.8125 33.025 43.2251 33.8 42.4626L54.7125 21.5375L42.4625 9.28755L21.55 30.2125ZM12 8.00005C5.375 8.00005 0 13.375 0 20V52C0 58.625 5.375 64 12 64H44C50.625 64 56 58.625 56 52V40C56 37.7875 54.2125 36 52 36C49.7875 36 48 37.7875 48 40V52C48 54.2126 46.2125 56 44 56H12C9.7875 56 8 54.2126 8 52V20C8 17.7875 9.7875 16 12 16H24C26.2125 16 28 14.2125 28 12C28 9.78755 26.2125 8.00005 24 8.00005H12Z" fill="#08C0DD"/>
</g>
<defs>
<clipPath id="clip0_13_275">
<rect width="64" height="64" fill="white"/>
</clipPath>
</defs>
</svg>
