<svg width="64" height="64" viewBox="0 0 64 64" fill="none" xmlns="http://www.w3.org/2000/svg">
<g clip-path="url(#clip0_13_270)">
<path d="M14.5875 4.225C15.15 3.4625 16.05 3 17 3H47C47.95 3 48.85 3.45 49.4125 4.225L63.4125 23.225C64.2625 24.375 64.175 25.9625 63.225 27.025L34.225 59.025C33.6625 59.65 32.85 60.0125 32 60.0125C31.15 60.0125 30.35 59.65 29.775 59.025L0.775047 27.025C-0.187453 25.9625 -0.262453 24.375 0.587547 23.225L14.5875 4.225ZM19.4 9.2C18.9875 9.5125 18.875 10.075 19.1375 10.5125L26.3125 22.4625L7.91255 24C7.40005 24.0375 7.00005 24.475 7.00005 25C7.00005 25.525 7.40005 25.95 7.91255 26L31.9125 28C31.9625 28 32.025 28 32.075 28L56.075 26C56.5875 25.9625 56.9875 25.525 56.9875 25C56.9875 24.475 56.5875 24.05 56.075 24L37.6875 22.475L44.8625 10.525C45.125 10.0875 45.0125 9.5125 44.6 9.2125C44.1875 8.9125 43.6125 8.9625 43.2625 9.3375L32 21.525L20.7375 9.325C20.3875 8.95 19.8125 8.9 19.4 9.2Z" fill="#08C0DD"/>
</g>
<defs>
<clipPath id="clip0_13_270">
<rect width="64" height="64" fill="white"/>
</clipPath>
</defs>
</svg>
