<svg width="64" height="64" viewBox="0 0 64 64" fill="none" xmlns="http://www.w3.org/2000/svg">
<g clip-path="url(#clip0_13_276)">
<path d="M64 30C64 44.3625 49.675 56 32 56C27.3625 56 22.9625 55.2 18.9875 53.7625C17.5 54.85 15.075 56.3375 12.2 57.5875C9.20004 58.8875 5.58754 60 2.00004 60C1.18754 60 0.462545 59.5125 0.150045 58.7625C-0.162455 58.0125 0.0125448 57.1625 0.575045 56.5875L0.612545 56.55C0.650045 56.5125 0.700045 56.4625 0.775045 56.375C0.912545 56.225 1.12504 55.9875 1.38754 55.6625C1.90004 55.0375 2.58754 54.1125 3.28754 52.9625C4.53754 50.8875 5.72504 48.1625 5.96254 45.1C2.21254 40.85 4.47782e-05 35.6375 4.47782e-05 30C4.47782e-05 15.6375 14.325 4 32 4C49.675 4 64 15.6375 64 30Z" fill="#08C0DD"/>
</g>
<defs>
<clipPath id="clip0_13_276">
<rect width="64" height="64" fill="white"/>
</clipPath>
</defs>
</svg>
