<svg width="64" height="64" viewBox="0 0 64 64" fill="none" xmlns="http://www.w3.org/2000/svg">
<g clip-path="url(#clip0_13_277)">
<path d="M19.575 48.1125L15.7125 44.25C14.65 43.1875 14.275 41.65 14.75 40.225C15.125 39.1125 15.625 37.6625 16.225 36H3C1.925 36 0.924999 35.425 0.387499 34.4875C-0.150001 33.55 -0.137501 32.4 0.412499 31.475L6.975 20.4125C8.6 17.675 11.5375 16 14.7125 16H25C25.3 15.5 25.6 15.0375 25.9 14.5875C36.1375 -0.512503 51.3875 -1.0125 60.4875 0.662498C61.9375 0.924998 63.0625 2.0625 63.3375 3.5125C65.0125 12.625 64.5 27.8625 49.4125 38.1C48.975 38.4 48.5 38.7 48 39V49.2875C48 52.4625 46.325 55.4125 43.5875 57.025L32.525 63.5875C31.6 64.1375 30.45 64.15 29.5125 63.6125C28.575 63.075 28 62.0875 28 61V47.6C26.2375 48.2125 24.7 48.7125 23.5375 49.0875C22.1375 49.5375 20.6125 49.15 19.5625 48.1125H19.575ZM48 21C49.3261 21 50.5979 20.4732 51.5355 19.5355C52.4732 18.5979 53 17.3261 53 16C53 14.6739 52.4732 13.4021 51.5355 12.4645C50.5979 11.5268 49.3261 11 48 11C46.6739 11 45.4021 11.5268 44.4645 12.4645C43.5268 13.4021 43 14.6739 43 16C43 17.3261 43.5268 18.5979 44.4645 19.5355C45.4021 20.4732 46.6739 21 48 21Z" fill="#08C0DD"/>
</g>
<defs>
<clipPath id="clip0_13_277">
<rect width="64" height="64" fill="white"/>
</clipPath>
</defs>
</svg>
